<?xml version="1.0" encoding="UTF-8" standalone="no"?>
<svg
   xmlns:dc="http://purl.org/dc/elements/1.1/"
   xmlns:cc="http://creativecommons.org/ns#"
   xmlns:rdf="http://www.w3.org/1999/02/22-rdf-syntax-ns#"
   xmlns:svg="http://www.w3.org/2000/svg"
   xmlns="http://www.w3.org/2000/svg"
   xmlns:sodipodi="http://sodipodi.sourceforge.net/DTD/sodipodi-0.dtd"
   xmlns:inkscape="http://www.inkscape.org/namespaces/inkscape"
   width="380.025pt"
   height="175.128pt"
   viewBox="0 0 380.025 175.128"
   version="1.2"
   id="svg67"
   sodipodi:docname="full-color_all.svg"
   inkscape:version="0.92.2 (5c3e80d, 2017-08-06)">
  <metadata
     id="metadata71">
    <rdf:RDF>
      <cc:Work
         rdf:about="">
        <dc:format>image/svg+xml</dc:format>
        <dc:type
           rdf:resource="http://purl.org/dc/dcmitype/StillImage" />
        <dc:title></dc:title>
      </cc:Work>
    </rdf:RDF>
  </metadata>
  <sodipodi:namedview
     pagecolor="#ffffff"
     bordercolor="#666666"
     borderopacity="1"
     objecttolerance="10"
     gridtolerance="10"
     guidetolerance="10"
     inkscape:pageopacity="0"
     inkscape:pageshadow="2"
     inkscape:window-width="640"
     inkscape:window-height="480"
     id="namedview69"
     showgrid="false"
     inkscape:zoom="0.61969608"
     inkscape:cx="253.35"
     inkscape:cy="116.752"
     inkscape:window-x="1109"
     inkscape:window-y="218"
     inkscape:window-maximized="0"
     inkscape:current-layer="svg67" />
  <defs
     id="defs26">
    <clipPath
       id="clip1">
      <path
         d="M 0 126 L 31 126 L 31 175.128906 L 0 175.128906 Z M 0 126 "
         id="path2" />
    </clipPath>
    <clipPath
       id="clip2">
      <path
         d="M 35 125 L 86 125 L 86 175.128906 L 35 175.128906 Z M 35 125 "
         id="path5" />
    </clipPath>
    <clipPath
       id="clip3">
      <path
         d="M 89 126 L 118 126 L 118 175.128906 L 89 175.128906 Z M 89 126 "
         id="path8" />
    </clipPath>
    <clipPath
       id="clip4">
      <path
         d="M 121 125 L 173 125 L 173 175.128906 L 121 175.128906 Z M 121 125 "
         id="path11" />
    </clipPath>
    <clipPath
       id="clip5">
      <path
         d="M 175 125 L 220 125 L 220 175.128906 L 175 175.128906 Z M 175 125 "
         id="path14" />
    </clipPath>
    <clipPath
       id="clip6">
      <path
         d="M 226 125 L 278 125 L 278 175.128906 L 226 175.128906 Z M 226 125 "
         id="path17" />
    </clipPath>
    <clipPath
       id="clip7">
      <path
         d="M 329 125 L 380.023438 125 L 380.023438 175.128906 L 329 175.128906 Z M 329 125 "
         id="path20" />
    </clipPath>
    <clipPath
       id="clip8">
      <path
         d="M 287 126 L 325 126 L 325 175.128906 L 287 175.128906 Z M 287 126 "
         id="path23" />
    </clipPath>
  </defs>
  <g
     id="surface510">
    <path
       style=" stroke:none;fill-rule:nonzero;fill:rgb(71.372986%,86.66687%,47.842407%);fill-opacity:1;"
       d="M 140.011719 50 C 140.011719 77.570312 162.441406 100 190.011719 100 C 217.582031 100 240.011719 77.570312 240.011719 50 C 240.011719 22.429688 217.582031 0 190.011719 0 C 162.441406 0 140.011719 22.429688 140.011719 50 "
       id="path28" />
    <path
       style=" stroke:none;fill-rule:nonzero;fill:rgb(14.117432%,36.077881%,30.587769%);fill-opacity:1;"
       d="M 173.679688 55.398438 C 173.636719 59.328125 178.28125 61.441406 181.214844 58.828125 L 185.371094 55.125 C 195.636719 45.972656 203.34375 34.929688 203.375 17.765625 C 203.378906 15.414062 201.5 13.425781 199.148438 13.414062 C 196.789062 13.402344 194.988281 15.308594 194.988281 17.664062 C 194.988281 29.179688 190.515625 38.460938 179.445312 48.300781 L 175.203125 52.066406 C 174.25 52.914062 173.695312 54.121094 173.679688 55.398438 Z M 173.679688 55.398438 "
       id="path30" />
    <path
       style=" stroke:none;fill-rule:nonzero;fill:rgb(14.117432%,36.077881%,30.587769%);fill-opacity:1;"
       d="M 213.949219 68.507812 C 216.613281 65.84375 214.878906 61.285156 211.117188 61.070312 L 205.226562 60.730469 C 191.496094 59.941406 178.238281 62.300781 166.078125 74.414062 C 164.414062 76.074219 164.335938 78.808594 165.988281 80.480469 C 167.648438 82.15625 170.269531 82.085938 171.9375 80.417969 C 180.082031 72.273438 189.804688 68.875 204.59375 69.742188 L 210.300781 70.085938 C 211.542969 70.160156 212.761719 69.699219 213.644531 68.816406 Z M 213.949219 68.507812 "
       id="path32" />
    <g
       clip-path="url(#clip1)"
       clip-rule="nonzero"
       id="g36">
      <path
         style=" stroke:none;fill-rule:nonzero;fill:rgb(14.117432%,36.077881%,30.587769%);fill-opacity:1;"
         d="M 26.367188 167.882812 L 7.316406 167.882812 L 7.316406 129.648438 C 7.316406 127.640625 5.710938 126.0625 3.65625 126.0625 C 1.640625 126.0625 0 127.703125 0 129.71875 L 0 171.46875 C 0 173.488281 1.640625 175.128906 3.65625 175.128906 L 26.367188 175.128906 C 28.382812 175.128906 30.023438 173.488281 30.023438 171.46875 C 30.023438 169.460938 28.417969 167.882812 26.367188 167.882812 "
         id="path34" />
    </g>
    <g
       clip-path="url(#clip2)"
       clip-rule="nonzero"
       id="g40">
      <path
         style=" stroke:none;fill-rule:nonzero;fill:rgb(14.117432%,36.077881%,30.587769%);fill-opacity:1;"
         d="M 68.902344 152.644531 L 51.882812 152.644531 L 60.421875 134.605469 Z M 65.414062 128.253906 C 64.164062 125.566406 61.28125 125.355469 60.425781 125.355469 C 59.554688 125.355469 56.617188 125.566406 55.375 128.242188 L 35.445312 169.871094 C 34.601562 171.753906 35.355469 173.800781 37.222656 174.734375 C 38.046875 175.167969 39 175.246094 39.910156 174.953125 C 40.882812 174.640625 41.699219 173.941406 42.15625 173.023438 L 48.484375 159.890625 L 72.296875 159.890625 L 78.632812 173.039062 C 79.082031 173.941406 79.902344 174.640625 80.871094 174.953125 C 81.238281 175.070312 81.609375 175.128906 81.976562 175.128906 C 82.523438 175.128906 83.058594 175 83.539062 174.746094 C 85.425781 173.800781 86.179688 171.75 85.324219 169.851562 Z M 65.414062 128.253906 "
         id="path38" />
    </g>
    <g
       clip-path="url(#clip3)"
       clip-rule="nonzero"
       id="g44">
      <path
         style=" stroke:none;fill-rule:nonzero;fill:rgb(14.117432%,36.077881%,30.587769%);fill-opacity:1;"
         d="M 114.007812 126.0625 L 93.453125 126.0625 C 91.433594 126.0625 89.792969 127.703125 89.792969 129.722656 C 89.792969 131.730469 91.402344 133.308594 93.453125 133.308594 L 100.070312 133.308594 L 100.070312 171.46875 C 100.070312 173.488281 101.710938 175.128906 103.730469 175.128906 C 105.746094 175.128906 107.386719 173.488281 107.386719 171.46875 L 107.386719 133.308594 L 114.007812 133.308594 C 116.058594 133.308594 117.664062 131.730469 117.664062 129.722656 C 117.664062 127.703125 116.023438 126.0625 114.007812 126.0625 "
         id="path42" />
    </g>
    <g
       clip-path="url(#clip4)"
       clip-rule="nonzero"
       id="g48">
      <path
         style=" stroke:none;fill-rule:nonzero;fill:rgb(14.117432%,36.077881%,30.587769%);fill-opacity:1;"
         d="M 155.582031 152.644531 L 138.5625 152.644531 L 147.105469 134.605469 Z M 152.09375 128.253906 C 150.84375 125.566406 147.960938 125.355469 147.105469 125.355469 C 146.234375 125.355469 143.296875 125.566406 142.054688 128.242188 L 122.128906 169.871094 C 121.28125 171.75 122.035156 173.800781 123.90625 174.734375 C 124.726562 175.167969 125.679688 175.246094 126.589844 174.953125 C 127.5625 174.640625 128.378906 173.941406 128.835938 173.023438 L 135.167969 159.890625 L 158.976562 159.890625 L 165.3125 173.039062 C 165.765625 173.941406 166.582031 174.640625 167.554688 174.953125 C 167.917969 175.070312 168.289062 175.128906 168.65625 175.128906 C 169.203125 175.128906 169.738281 175 170.21875 174.746094 C 172.105469 173.800781 172.863281 171.75 172.007812 169.851562 Z M 152.09375 128.253906 "
         id="path46" />
    </g>
    <g
       clip-path="url(#clip5)"
       clip-rule="nonzero"
       id="g52">
      <path
         style=" stroke:none;fill-rule:nonzero;fill:rgb(14.117432%,36.077881%,30.587769%);fill-opacity:1;"
         d="M 201.003906 132.242188 C 205.773438 132.242188 210.40625 134.179688 213.71875 137.5625 C 215.167969 139.011719 217.496094 139.042969 218.910156 137.632812 C 220.34375 136.195312 220.34375 133.949219 218.910156 132.511719 C 214.066406 127.667969 207.703125 125 201.003906 125 C 187.183594 125 175.941406 136.242188 175.941406 150.0625 C 175.941406 163.882812 187.183594 175.128906 201.003906 175.128906 C 207.78125 175.128906 214.144531 172.457031 218.910156 167.617188 C 220.34375 166.179688 220.34375 163.929688 218.910156 162.496094 C 217.496094 161.082031 215.167969 161.117188 213.710938 162.574219 C 210.355469 166 205.84375 167.882812 201.003906 167.882812 C 191.050781 167.882812 183.253906 160.054688 183.253906 150.0625 C 183.253906 140.070312 191.050781 132.242188 201.003906 132.242188 "
         id="path50" />
    </g>
    <g
       clip-path="url(#clip6)"
       clip-rule="nonzero"
       id="g56">
      <path
         style=" stroke:none;fill-rule:nonzero;fill:rgb(14.117432%,36.077881%,30.587769%);fill-opacity:1;"
         d="M 269.746094 150.0625 C 269.746094 160.058594 261.949219 167.882812 251.996094 167.882812 C 242.042969 167.882812 234.25 160.058594 234.25 150.0625 C 234.25 140.070312 242.042969 132.242188 251.996094 132.242188 C 261.949219 132.242188 269.746094 140.070312 269.746094 150.0625 M 251.996094 125 C 238.175781 125 226.933594 136.242188 226.933594 150.0625 C 226.933594 163.882812 238.175781 175.128906 251.996094 175.128906 C 265.816406 175.128906 277.0625 163.882812 277.0625 150.0625 C 277.0625 136.242188 265.816406 125 251.996094 125 "
         id="path54" />
    </g>
    <g
       clip-path="url(#clip7)"
       clip-rule="nonzero"
       id="g60">
      <path
         style=" stroke:none;fill-rule:nonzero;fill:rgb(14.117432%,36.077881%,30.587769%);fill-opacity:1;"
         d="M 363.25 152.644531 L 346.234375 152.644531 L 354.773438 134.605469 Z M 379.671875 169.851562 L 359.761719 128.253906 C 358.511719 125.566406 355.628906 125.355469 354.773438 125.355469 C 353.90625 125.355469 350.96875 125.566406 349.722656 128.242188 L 329.796875 169.871094 C 328.949219 171.75 329.703125 173.800781 331.574219 174.734375 C 332.398438 175.167969 333.351562 175.246094 334.257812 174.953125 C 335.230469 174.640625 336.046875 173.941406 336.503906 173.023438 L 342.835938 159.890625 L 366.644531 159.890625 L 372.980469 173.039062 C 373.433594 173.941406 374.25 174.640625 375.21875 174.953125 C 375.585938 175.070312 375.957031 175.128906 376.324219 175.128906 C 376.871094 175.128906 377.40625 175 377.890625 174.746094 C 379.773438 173.800781 380.53125 171.75 379.671875 169.851562 "
         id="path58" />
    </g>
    <g
       clip-path="url(#clip8)"
       clip-rule="nonzero"
       id="g64">
      <path
         style=" stroke:none;fill-rule:nonzero;fill:rgb(14.117432%,36.077881%,30.587769%);fill-opacity:1;"
         d="M 294.960938 133.308594 L 303.851562 133.308594 C 308.164062 133.308594 311.675781 136.847656 311.675781 141.203125 C 311.675781 145.558594 308.164062 149.097656 303.851562 149.097656 L 294.960938 149.097656 Z M 323.84375 168.953125 L 310.035156 155.007812 C 315.488281 152.640625 319.0625 147.261719 319.0625 141.203125 C 319.0625 132.855469 312.332031 126.0625 304.0625 126.0625 L 291.304688 126.0625 C 289.285156 126.0625 287.648438 127.703125 287.648438 129.722656 L 287.648438 171.46875 C 287.648438 173.488281 289.285156 175.128906 291.304688 175.128906 C 293.355469 175.128906 294.960938 173.550781 294.960938 171.542969 L 294.960938 156.34375 L 300.816406 156.34375 L 317.765625 173.292969 C 319.214844 174.742188 319.984375 175.125 321.429688 175.125 C 323.457031 175.125 325 173.582031 325 171.558594 C 325 170.496094 324.613281 169.628906 323.84375 168.953125 "
         id="path62" />
    </g>
  </g>
</svg>
